<?xml version="1.0" encoding="utf-8"?>
<!-- Generator: Adobe Illustrator 16.0.0, SVG Export Plug-In . SVG Version: 6.00 Build 0)  -->
<!DOCTYPE svg PUBLIC "-//W3C//DTD SVG 1.1//EN" "http://www.w3.org/Graphics/SVG/1.1/DTD/svg11.dtd">
<svg version="1.1" xmlns="http://www.w3.org/2000/svg" xmlns:xlink="http://www.w3.org/1999/xlink" x="0px" y="0px" width="500px"
	 height="500px" viewBox="0 0 500 500" enable-background="new 0 0 500 500" xml:space="preserve">
<g id="education">
	<circle fill="#AE87BD" cx="250.459" cy="250.221" r="205.874"/>
	<g>
		<path fill="#353F49" d="M344.183,111.135v217.781h-5.529v40.399h5.529v5.05H179.086c-2.765,0-5.429-0.416-7.929-1.199
			c-10.845-3.371-14.701-13.396-16.829-24.834l-0.631-206.582c0-16.286,11.943-30.615,28.229-30.615H344.183z"/>
		<polygon fill="#48515A" points="344.177,323.865 179.736,323.865 179.736,111.846 344.183,111.608 		"/>
		<path fill="#FFFFFF" d="M339.619,328.916v40.399H181.477c-7.237,0.5-11.818-1.818-15.868-5.328
			c-3.795-3.308-5.926-8.534-6.206-13.509c-0.013-0.328-0.025-0.669-0.025-0.997v-1.149c0-0.416,0.013-0.833,0.038-1.236
			c0.444-6.174,3.566-11.996,9.138-15.279c1.193-0.707,3.195-1.586,4.528-2.078c2.678-0.984,5.323-0.822,8.395-0.822H339.619z"/>
		<path fill="#28313D" d="M159.416,347.096c0.379-6.174,3.599-11.564,8.434-14.848c1.035-0.707,2.083-1.313,3.245-1.805
			c2.323-0.984,4.684-1.527,7.36-1.527h165.728v-5.051H178.581c-13.483,0-24.253,10.971-24.253,24.467v1.149
			c0,10.896,7.02,20.415,16.829,23.685c2.336,0.783,4.835,1.199,7.424,1.199h165.602v-5.05H178.581
			c-5.34,0-10.087-2.398-13.61-5.909c-3.295-3.307-5.328-7.953-5.568-12.928c-0.012-0.328-0.025-0.669-0.025-0.997v-1.149
			C159.378,347.916,159.391,347.499,159.416,347.096z"/>
		<path fill="#7D1819" d="M164.871,363.297c3.519,3.52,8.372,5.703,13.71,5.703h160.388l0,0H178.581
			C173.242,369,168.389,366.816,164.871,363.297z"/>
		<g>
			<path fill="#F9F9FA" d="M316.396,137H202.975H200v4.449v160.916V307h2.975h113.421H320v-4.636V141.449V137H316.396z M316,141v162
				l0,0H203l0,0V141l0,0H316L316,141z"/>
			<rect x="202.975" y="303" fill="#F9F9FA" width="113.421" height="0"/>
			<rect x="202.975" y="141" fill="#F9F9FA" width="113.421" height="0"/>
		</g>
		<polygon fill="#D9D8D5" points="188.585,328.977 339.773,345.254 339.773,329.039 		"/>
	</g>
	<rect x="225.486" y="178.26" fill="#FFFFFF" width="68.199" height="8.632"/>
	<rect x="225.314" y="195.814" fill="#FFFFFF" width="68.199" height="8.632"/>
	<rect x="225.314" y="213.368" fill="#FFFFFF" width="68.199" height="8.632"/>
</g>
<g id="risk_reduction">
	<circle fill="#CDE3A2" cx="250.459" cy="250.173" r="205.874"/>
	<path fill="#404D52" d="M351.242,377.969H149.678c-6.862,0-12.478-5.614-12.478-12.477V239.488c0-6.862,5.615-12.477,12.478-12.477
		h201.564c6.861,0,12.477,5.614,12.477,12.477v126.004C363.719,372.354,358.104,377.969,351.242,377.969z"/>
	<path fill="#DCD9DD" d="M347.166,372.239H153.753c-4.979,0-9.052-4.073-9.052-9.052v-120.12c0-4.978,4.073-9.051,9.052-9.051
		h193.413c4.979,0,9.053,4.073,9.053,9.051v120.12C356.219,368.166,352.145,372.239,347.166,372.239z"/>
	<path fill="#404D52" d="M202.4,166.895h0.025c0-9.787,3.771-18.177,9.35-22.671c0.389-0.313,0.794-0.624,1.2-0.899
		c0.271-0.183,0.548-0.364,0.827-0.529c0.139-0.082,0.279-0.166,0.42-0.244c0.282-0.155,0.568-0.303,0.855-0.439
		c0.288-0.137,0.58-0.262,0.873-0.379c1.618-0.643,3.326-0.985,5.09-0.985h59.74c1.764,0,3.471,0.341,5.088,0.984
		c0.295,0.117,0.586,0.242,0.873,0.379c0.288,0.136,0.572,0.282,0.854,0.438c0.141,0.077,0.28,0.157,0.419,0.239
		c0.279,0.165,0.553,0.338,0.824,0.521c0.406,0.274,0.805,0.602,1.193,0.915c5.58,4.494,9.35,12.884,9.35,22.671h0.014v205.532
		h6.427V157.688c0-14.442-8.278-26.145-18.546-26.145h-72.012c-10.267,0-18.563,11.702-18.563,26.145v214.738h5.697V166.895z"/>
	<path fill="#DCD9DD" d="M290.047,144.19c-0.39-0.313-0.794-0.608-1.201-0.882c-0.271-0.184-0.549-0.357-0.826-0.521
		c-0.139-0.082-0.28-0.162-0.422-0.24c-0.28-0.155-0.566-0.302-0.854-0.438c-0.289-0.137-0.58-0.261-0.874-0.378
		c-1.617-0.644-3.325-0.984-5.089-0.984h-59.74c-1.764,0-3.472,0.341-5.09,0.984c-0.293,0.117-0.584,0.242-0.872,0.379
		c-0.288,0.136-0.573,0.282-0.854,0.438c-0.141,0.077-0.28,0.157-0.419,0.239c-0.278,0.165-0.553,0.338-0.823,0.521
		c-0.406,0.274-0.831,0.568-1.221,0.882c-5.578,4.494-9.361,12.935-9.361,22.639v205.598h96.996V166.829
		C299.396,157.125,295.625,148.685,290.047,144.19z"/>
	<path fill="#F59327" d="M244.394,236.203h-30.067c-0.963,0-1.752-0.788-1.752-1.752v-25.193c0-0.965,0.789-1.754,1.752-1.754
		h30.067c0.964,0,1.753,0.789,1.753,1.754v25.193C246.146,235.415,245.357,236.203,244.394,236.203z"/>
	<path fill="#F59327" d="M244.394,276.719h-30.067c-0.963,0-1.752-0.788-1.752-1.752v-25.193c0-0.965,0.789-1.754,1.752-1.754
		h30.067c0.964,0,1.753,0.789,1.753,1.754v25.193C246.146,275.931,245.357,276.719,244.394,276.719z"/>
	<path fill="#F59327" d="M288.28,236.203h-30.067c-0.963,0-1.752-0.788-1.752-1.752v-25.193c0-0.965,0.789-1.754,1.752-1.754h30.067
		c0.964,0,1.753,0.789,1.753,1.754v25.193C290.033,235.415,289.244,236.203,288.28,236.203z"/>
	<path fill="#F59327" d="M288.28,276.719h-30.067c-0.963,0-1.752-0.788-1.752-1.752v-25.193c0-0.965,0.789-1.754,1.752-1.754h30.067
		c0.964,0,1.753,0.789,1.753,1.754v25.193C290.033,275.931,289.244,276.719,288.28,276.719z"/>
	<path fill="#F59327" d="M185.482,312.481h-30.066c-0.965,0-1.754-0.789-1.754-1.753v-25.193c0-0.965,0.789-1.753,1.754-1.753
		h30.066c0.964,0,1.752,0.788,1.752,1.753v25.193C187.234,311.692,186.446,312.481,185.482,312.481z"/>
	<path fill="#F59327" d="M347.129,312.481h-30.068c-0.963,0-1.752-0.789-1.752-1.753v-25.193c0-0.965,0.789-1.753,1.752-1.753
		h30.068c0.963,0,1.752,0.788,1.752,1.753v25.193C348.881,311.692,348.092,312.481,347.129,312.481z"/>
	<path fill="#F59327" d="M184.67,276.719h-30.066c-0.965,0-1.753-0.788-1.753-1.752v-25.193c0-0.965,0.788-1.754,1.753-1.754h30.066
		c0.965,0,1.754,0.789,1.754,1.754v25.193C186.424,275.931,185.635,276.719,184.67,276.719z"/>
	<path fill="#F59327" d="M347.129,276.719h-30.068c-0.963,0-1.752-0.788-1.752-1.752v-25.193c0-0.965,0.789-1.754,1.752-1.754
		h30.068c0.963,0,1.752,0.789,1.752,1.754v25.193C348.881,275.931,348.092,276.719,347.129,276.719z"/>
	<path fill="#404D52" d="M290.578,375.095h-80.236c-0.965,0-1.754-0.789-1.754-1.753v-54.791c0-4.635,3.791-8.426,8.426-8.426
		h66.893c4.634,0,8.425,3.791,8.425,8.426v54.791C292.331,374.306,291.543,375.095,290.578,375.095z"/>
	<circle fill="#C92E2D" cx="250.853" cy="134.967" r="38.278"/>
	<rect x="245.524" y="109.261" fill="#EDF8FE" width="13.234" height="51.705"/>
	<rect x="225.689" y="128.496" fill="#EDF8FE" width="51.705" height="13.234"/>
</g>
<g id="environment">
	<circle fill="#CDE3A2" cx="250.46" cy="250.269" r="205.874"/>
	<path fill="#404D52" d="M207.644,113.493c-0.973,0.499-1.405,1.6-0.966,2.458l99.863,194.842c0.439,0.857,1.585,1.149,2.559,0.65
		l0,0c0.973-0.498,1.404-1.599,0.965-2.457l-99.862-194.842C209.763,113.286,208.617,112.994,207.644,113.493L207.644,113.493z"/>
	<path fill="#404D52" d="M203.806,352.146h43.346V325.45c0-5.995,4.86-10.854,10.854-10.854c5.995,0,10.854,4.859,10.854,10.854
		v26.696h37.622c10.207,0,18.481,8.273,18.481,18.481c0,0.494-0.025,0.981-0.063,1.467H185.388
		c-0.038-0.485-0.063-0.973-0.063-1.467C185.325,360.42,193.599,352.146,203.806,352.146z"/>
	<path fill="#404D52" d="M208.875,106.533l0.012,0.023c1.134-0.516,2.393-0.806,3.72-0.806c4.969,0,8.997,4.028,8.997,8.997
		c0,3.678-2.208,6.839-5.372,8.234c-48.077,25.063-67.072,84.242-42.395,132.649c24.585,48.224,83.287,67.65,131.708,43.881
		c1.404-0.896,3.072-1.417,4.861-1.417c5.002,0,9.057,4.056,9.057,9.059c0,3.965-2.549,7.332-6.096,8.56
		c-57.203,28.015-126.515,5.042-155.552-51.914C128.487,206.27,151.349,135.86,208.875,106.533z"/>
	<path fill="#364A5E" d="M170.12,210.168c0,6.95,0.763,13.72,2.212,20.233c1.716,7.727,4.395,15.094,7.903,21.964
		c5.624,11.01,13.38,20.746,22.724,28.67c0.237,0.2,0.475,0.399,0.713,0.596c3.963,3.295,8.202,6.27,12.682,8.875
		c13.709,7.977,29.644,12.547,46.647,12.547c16.211,0,31.455-4.154,44.721-11.457c0.666-0.366,1.328-0.741,1.985-1.126
		c24.253-14.134,41.522-38.943,45.368-67.989c0.534-4.028,0.811-8.138,0.811-12.313c0-6.92-0.758-13.665-2.195-20.151
		c-0.056-0.264-0.114-0.528-0.176-0.792c-0.722-3.133-1.604-6.205-2.635-9.206c-0.258-0.75-0.525-1.499-0.801-2.244
		c-2.484-6.674-5.715-12.984-9.586-18.831c-1.112-1.678-2.277-3.318-3.492-4.914c-3.764-4.955-8.014-9.52-12.679-13.621
		c-0.325-0.287-0.651-0.572-0.982-0.854c-1.142-0.977-2.31-1.927-3.497-2.849c-8.449-6.551-18.059-11.673-28.468-15.008
		c-0.325-0.105-0.651-0.208-0.979-0.308c-8.657-2.673-17.857-4.107-27.395-4.107c-2.129,0-4.244,0.07-6.34,0.214
		c-2.438,0.164-4.852,0.422-7.233,0.771c-8.511,1.247-16.646,3.646-24.241,7.035c-0.484,0.217-0.968,0.437-1.449,0.666
		c-23.692,11.065-41.939,31.835-49.631,57.199c-1.165,3.834-2.089,7.771-2.749,11.799c-0.053,0.325-0.105,0.654-0.155,0.979
		C170.489,200.584,170.12,205.334,170.12,210.168z"/>
	<g>
		<path fill="#89BA41" d="M174.106,183.17c7.692-25.364,25.939-46.134,49.631-57.199c3.239-0.126,6.43,0.466,9.323,2.634
			c4.415,3.312,2.801,9.508,3.06,14.331c5.685,0.279,15.539-2.447,18.966,2.743c1.064,1.607,1.344,3.124,2.889,4.644
			c1.594,1.563,2.594,2.514,3.996,4.412c0.848,1.147,1.221,2.056,2.518,2.37c1.211,5.377-9.975,2.893-13.195,2.89
			c-3.318-0.003-9.145,1.672-12.04,0.308c-1.684-0.792-1.975-3.708-3.456-4.136c-2.118-0.61-2.928,2.628-3.805,3.799
			c-1.945,2.596-3.67,3.391-6.771,3.55c-2.212,0.111-4.559-0.32-6.748,0c-1.587,0.231-2.62,1.141-3.89,1.675
			c1.493,0.73,2.312,2.951,4.113,3.532c2.628,0.848,6.642,0.578,9.384,0.674c3.7,0.132,3.365-1.739,5.715-3.74
			c2.696-2.3,4.527-2.25,8.073-2.42c5.621-0.267,16.123-1.268,20.676,2.341c2.218,1.76,1.435,4.354,3.526,6.079
			c3.443,2.84,10.074,2.224,12.467,6.237c2.104,3.523,0.488,10.851-0.006,14.427c-0.73,5.281-0.624,9.886-6.061,11.978
			c-5.061,1.948-11.389,2.276-16.674,3.289c-2.898,0.551-6.469-0.012-7.417,3.13c-0.463,1.537,0.032,3.688-0.288,5.304
			c-0.689,3.461-3.121,5.017-5.585,7.357c-2.561,2.441-2.327,3.975-2.327,7.833c0,5.609-0.519,8.769-2.655,13.864
			c-0.921,2.192-1.446,4.802-1.452,7.328c-0.009,4.321,1.218,7.754,4.395,10.197c3.884,2.989,7.647,6.439,4.943,11.169
			c-3.259,2.367-10.039,0.601-13.063-1.344c-5.187-3.333-9.162-5.283-15.343-6.537c-11.086-2.244-4.644-12.966-8.566-20.497
			c-1.156-2.218-3.497-3.315-4.632-5.372c-1.388-2.502-1.484-5.72-1.47-8.519c0.023-4.929,0.871-9.669,0.88-14.589
			c0.009-4.574-1.165-4.175-4.107-6.231c-3.435-2.399-2.919-5.894-2.934-10.003c-0.003-1.124-0.015-2.271,0.05-3.376
			c2.13-0.818,4.151-1.534,6.36-2.323c1.288-0.458,4.333-0.995,5.275-1.887c2.942-2.781,4.166-11.901,3.819-15.745
			c-7.199-1.604-6.237,12.007-13.365,12.283c-7.918,0.305-8.59-4.477-8.255-10.816c5.356-0.282,6.677-0.19,6.366-6.161
			c-2.696-0.463-5.099,1.446-7.076,2.898c-1.341,0.983-3.444,1.423-4.638,2.397c-2.96,2.42-1.282,7.243-3.84,10.168
			c-1.223,0.279-2.062,1.121-2.341,2.332c-2.787,1.534-4.248,6.709-6.727,9.053c-0.044-1.517-0.244-3.021-0.449-4.532
			C172.018,190.942,172.942,187.005,174.106,183.17z"/>
		<path fill="#89BA41" d="M304.18,277.882c-0.681-4.371,4.479-6.958,4.943-10.805c0.555-4.605-3.727-7.108-5.082-10.802
			c-0.756-2.067-0.199-5.098-0.536-7.348c-2.67-0.458-3.62-0.854-5.51-2.734c-2.262-2.253-3.942-2.479-6.562-4.034
			c-4.63-2.746-7.455-6.812-6.895-12.421c0.568-5.7,2.517-12.926,8.111-15.463c2.723-1.235,3.617-0.185,4.509-3.092
			c0.575-1.866,0.158-4.066,0.566-5.961c2.998-1.898,6.36-4.212,9.631-5.946c3.306-1.754,7.646-4.635,11.544-5.192
			c1.939-0.276,3.566-0.088,5.213,0.587c0.521,0.214,0.402,1.15,1.133,1.414c0.826,0.299,2.481-0.085,3.276-0.299
			c4.128-1.121,9.856-5.911,10.84-9.96c0.325-1.34,0.023-2.845,0.622-4.136c0.434-0.942,1.657-1.584,2.281-2.57
			c1.344-2.124,2.184-5.245-1.117-6.516c-2.937-1.129-3.778,1.062-6.195,1.846c-3.374,1.097-6.859-0.405-9.937-1.596
			c-0.141-2.611-3.068-5.835-4.901-7.48c-2.5-2.248-5.642-3.535-8.323-5.427c-1.786-1.265-3.394-2.74-5.308-3.764
			c-2.979-1.59-15.535-3.585-11.039-9.027c1.682-2.036,4.686-3.209,6.135-5.867c0.555-1.012,0.643-1.957,1.088-3.01
			c1.884-4.424,4.674-3.829,8.881-2.409c3.737,1.258,5.074,4.864,9.616,4.177c0.769-0.114,1.484-0.291,2.174-0.49
			c0.331,0.282,0.657,0.566,0.982,0.854c4.665,4.102,8.915,8.666,12.679,13.621c1.215,1.596,2.38,3.236,3.492,4.914
			c3.871,5.847,7.102,12.157,9.586,18.831c0.275,0.745,0.543,1.494,0.801,2.244c1.03,3.001,1.913,6.073,2.635,9.206
			c0.062,0.264,0.12,0.528,0.176,0.792c-1.871,0.695-3.49-1.769-5.775-0.619c-2.403,1.206-2.758,6.486-4.99,8.525
			c-3.523,3.221-9.969-0.097-12.623,4.966c-3.65,6.967,2.54,19.793-4.164,25.083c-2.798,2.209-3.54,1.317-3.158,5.773
			c0.328,3.875,0.971,7.671,0.012,11.456c-1.036,4.069-3.853,6.745-4.188,10.992c-0.284,3.592-0.554,5.439-2.326,8.517
			c-1.927,3.353-3.825,6.521-5.521,9.995C309.041,278.627,308.398,277.987,304.18,277.882z"/>
		<path fill="#89BA41" d="M290.427,137.427c-1.603,2.605-7.78,4.198-10.616,2.62c-2.617-1.458-3.134-4.652-7.07-5.662
			c-3.055-0.783-9.535,0.657-11.676-1.966c-1.866-2.288,0.756-6.489-1.291-8.448c-1.604-1.535-5.187-0.173-7.064-1.502
			c-0.543-0.385-2.878-3.324-3.153-3.917c-0.044-0.097-0.088-0.191-0.129-0.282c2.382-0.349,4.796-0.607,7.233-0.771
			c2.096-0.144,4.211-0.214,6.34-0.214c9.537,0,18.737,1.435,27.395,4.107c0.328,0.1,0.654,0.202,0.979,0.308
			c-0.53,0.998-1.079,2.016-1.335,3.371C289.254,129.222,292.984,133.267,290.427,137.427z"/>
		<path fill="#89BA41" d="M234.911,284.096c3.758,0.561,7.454,0.261,11.115-0.288c3.688-0.548,10.063-1.165,13.468,0.493
			c2.184,1.062,2.283,3.649,4.23,4.992c1.775,1.225,5.053,0.682,7.208,1.297c0.165,1.937-1.142,3.359-0.786,5.48
			c6.349,0.332,14.703,0.845,20.074-2.91c5.129-3.585-0.107-7.049,1.573-11.729c1.173-3.271,3.875-3.424,6.539-1.966
			c3.098,1.698,3.916,4.855,5.808,7.281c1.248,1.597,4.334,1.083,5.287,2.916c0.141,0.271,0.231,0.54,0.278,0.807
			c-0.657,0.385-1.319,0.76-1.985,1.126c-13.266,7.303-28.51,11.457-44.721,11.457c-17.003,0-32.938-4.57-46.647-12.547
			c-4.479-2.605-8.719-5.58-12.682-8.875c0.83-0.51,1.916-0.627,3.356-0.771C216.509,279.915,225.829,282.742,234.911,284.096z"/>
	</g>
</g>
<g id="lgbt">
	<circle fill="#F57E20" cx="250.459" cy="250.076" r="205.874"/>
	<path fill="#224966" d="M251.798,316l25.299,27.168c0.8,0.855,1.745,1.471,2.76,1.891c0.324,0.615,0.701,1.217,1.202,1.752
		c2.946,3.166,7.907,3.346,11.074,0.396l27.171-25.307c3.166-2.947,3.34-7.908,0.391-11.076c-2.952-3.166-7.905-3.34-11.074-0.395
		l-13.889,12.932l-2.187-41.098c5.493-0.805,10.953-2.459,16.195-5.049c26.916-13.309,37.984-46.026,24.676-72.943
		c-13.303-26.912-46.02-37.99-72.939-24.684c-26.913,13.306-37.984,46.03-24.682,72.941c8.134,16.455,23.523,26.971,40.404,29.633
		l2.135,39.328l-15.063-16.172c-2.95-3.17-7.91-3.348-11.082-0.4C249.024,307.873,248.843,312.83,251.798,316z M269.251,197.335
		c17.13-8.466,37.95-1.417,46.418,15.709c8.466,17.129,1.425,37.952-15.706,46.418c-17.127,8.471-37.949,1.422-46.416-15.707
		C245.078,226.624,252.121,205.803,269.251,197.335z"/>
	<path fill="#224966" d="M218.411,284.018l0.238,26.611l-18.434,0.166c-6.026,0.051-10.882,3.146-10.83,9.18
		c0.055,6.02,4.959,8.379,10.985,8.326l18.435-0.164l0.076,8.58c0.087,9.742,3.8,14.105,8.333,14.066
		c4.521-0.043,8.154-4.473,8.069-14.211l-0.078-8.582l19.738-0.176c6.026-0.053,10.89-2.5,10.836-8.523
		c-0.054-6.029-4.966-9.035-10.991-8.982l-19.739,0.176l-0.238-26.824c25.636-4.486,45.097-26.963,44.857-53.827
		c-0.266-29.896-24.805-53.992-54.7-53.727c-29.895,0.264-53.998,24.795-53.73,54.693
		C171.482,258.141,192.048,280.578,218.411,284.018z M225.145,195.822c19.026-0.174,34.639,15.167,34.81,34.188
		c0.169,19.021-15.169,34.643-34.193,34.811c-19.029,0.166-34.64-15.174-34.808-34.198
		C190.782,211.599,206.117,195.99,225.145,195.822z"/>
</g>
<g id="women" display="none">
	<circle display="inline" fill="#89BA41" cx="250.459" cy="250.076" r="205.874"/>
	<path display="inline" fill="#F36E5D" d="M224.536,92.865c-2.031-2.094-4.369-3.402-7.096-3.59
		c-8.393-0.58-12.992,9.86-15.431,23.697c-4.563,25.876-1.553,63.656-1.553,63.656c23.601,5.434,36.121-0.134,36.121-0.134
		S240.454,109.26,224.536,92.865z"/>
	<path display="inline" fill="#1A334A" d="M248.667,299.829l-59.744,0.222c0,0-0.5,67.48,0.293,78.764
		c0.795,11.285,4.061,12.273,10.591,14.506c3.303,1.127,11.106,1.277,19.34,1.08c8.233,0.135,16.036-0.072,19.33-1.225
		c6.513-2.281,9.771-3.293,10.482-14.584C249.669,367.305,248.667,299.829,248.667,299.829z"/>
	<path display="inline" fill="#FED362" d="M194.521,281.705l-0.155-109.115l48.161-0.18l0.403,108.362
		C242.929,280.772,225.645,287.359,194.521,281.705z"/>
	<path display="inline" fill="#1A334A" d="M191.583,301.529l-0.08-21.568c0,0,36.895,5.383,54.428-1.207l0.084,22.573
		C246.015,301.327,220.197,306.441,191.583,301.529z"/>
	<path display="inline" fill="#1A334A" d="M298.998,235.408l-52.983,27.604c0,0,54.157,105.568,60.041,115.235
		c5.883,9.661,9.239,9.044,16.065,8.026c3.453-0.51,10.453-3.956,17.681-7.913c7.378-3.651,14.216-7.415,16.615-9.952
		c4.739-5.017,7.168-7.414,2.62-17.775C354.488,340.281,298.998,235.408,298.998,235.408z"/>
</g>
<g id="hunger" display="none">
	<circle display="inline" fill="#3DB49E" cx="250.459" cy="250.173" r="205.874"/>
	<ellipse display="inline" fill="#E66A5E" cx="257.4" cy="250.172" rx="106.706" ry="97.002"/>
	<path display="inline" fill="#252525" d="M139.981,151.444l-4.001-10.843c-0.043-0.116-0.275-0.102-0.291,0.018l-2.307,17.621
		c-0.018,0.128-0.273,0.131-0.295,0.003l-3.019-17.405c-0.021-0.126-0.271-0.127-0.294-0.002l-3.297,17.468
		c-0.023,0.126-0.273,0.124-0.294-0.002l-2.86-17.498c-0.02-0.124-0.268-0.128-0.294-0.004l-3.766,17.538
		c-0.027,0.125-0.277,0.119-0.294-0.007l-2.309-17.437c-0.018-0.127-0.269-0.133-0.295-0.006l-3.571,17.213
		c-0.026,0.127-0.281,0.12-0.294-0.009l-1.779-17.444c-0.013-0.121-0.247-0.137-0.291-0.02l-4.073,10.815
		c-0.002,0.008-0.004,0.016-0.005,0.023c-2.044,28.51,11.282,34.051,12.438,34.477c0.05,0.019,0.08,0.056,0.08,0.096v102.567
		c0,0.06,0.066,0.107,0.147,0.107h4.18h3.969c0.082,0,0.148-0.048,0.148-0.107V186.041c0-0.041,0.029-0.078,0.08-0.097
		c1.166-0.425,14.634-5.964,12.59-34.478C139.985,151.46,139.984,151.452,139.981,151.444z"/>
	<path display="inline" fill="#C92E2D" d="M124.789,229.287h-3.24c-4.111,0-7.475,3.364-7.475,7.475v96.895
		c0,0.953,0.78,1.733,1.732,1.733h14.724c0.954,0,1.733-0.78,1.733-1.733v-96.895C132.264,232.651,128.9,229.287,124.789,229.287z"
		/>
	<path display="inline" fill="#252525" d="M389.888,293.061l-0.025-152.552c0,0-10.391,8.461-14.132,27.949
		c-2.516,13.109-0.941,29.661,5.942,39.546l-0.021,85.057H389.888z"/>
	<path display="inline" fill="#C92E2D" d="M387.304,224.718h-3.241c-4.11,0-7.474,3.363-7.474,7.475v101.82
		c0,0.758,0.619,1.377,1.377,1.377h15.436c0.757,0,1.377-0.619,1.377-1.377v-101.82
		C394.778,228.081,391.415,224.718,387.304,224.718z"/>
</g>
</svg>
